<svg width="1280" height="720" viewBox="0 0 1280 720" fill="none" xmlns="http://www.w3.org/2000/svg">
<rect width="1280" height="720" fill="#C9E4C3"/>
<path d="M445 288.66C445 292.832 443.35 296.832 440.412 299.782C437.475 302.731 433.491 304.388 429.336 304.388C425.182 304.388 421.198 302.731 418.26 299.782C415.323 296.832 413.673 292.832 413.673 288.66C413.635 255.996 400.695 224.681 377.693 201.584C354.691 178.487 323.504 165.494 290.973 165.456C261.903 165.488 234.032 177.097 213.476 197.737C192.92 218.378 181.359 246.363 181.327 275.553C181.359 301.267 191.545 325.919 209.653 344.101C227.761 362.284 252.312 372.512 277.92 372.544C300.069 372.519 321.304 363.674 336.965 347.948C352.627 332.222 361.436 310.9 361.46 288.66C361.439 269.895 354.007 251.905 340.792 238.636C327.578 225.368 309.661 217.904 290.973 217.883C275.746 217.901 261.148 223.982 250.381 234.794C239.614 245.605 233.557 260.264 233.54 275.553C233.54 287.372 238.216 298.707 246.539 307.064C254.862 315.421 266.15 320.117 277.92 320.117C286.229 320.117 294.197 316.802 300.072 310.903C305.947 305.004 309.248 297.003 309.248 288.66C309.248 283.794 307.322 279.126 303.895 275.685C300.468 272.244 295.82 270.311 290.973 270.311C289.593 270.313 288.269 270.864 287.292 271.844C290.5 273.381 293.092 275.968 294.642 279.18C296.192 282.392 296.608 286.038 295.822 289.519C295.035 293 293.093 296.108 290.314 298.334C287.536 300.56 284.086 301.77 280.531 301.767C273.607 301.767 266.967 299.005 262.071 294.089C257.175 289.173 254.425 282.506 254.425 275.553C254.425 265.82 258.275 256.486 265.13 249.603C271.984 242.721 281.28 238.854 290.973 238.854C297.487 238.854 303.937 240.143 309.955 242.646C315.973 245.149 321.441 248.817 326.047 253.442C330.653 258.067 334.307 263.558 336.8 269.6C339.292 275.643 340.575 282.12 340.575 288.66C340.558 305.34 333.951 321.332 322.205 333.127C310.459 344.922 294.532 351.555 277.92 351.573C257.849 351.549 238.606 343.532 224.413 329.28C210.221 315.029 202.237 295.708 202.212 275.553C202.237 251.923 211.596 229.268 228.237 212.558C244.877 195.849 267.44 186.451 290.973 186.427C317.967 186.458 343.845 197.239 362.933 216.405C382.02 235.571 392.757 261.556 392.788 288.66C392.753 319.24 380.64 348.557 359.106 370.179C337.571 391.802 308.374 403.965 277.92 404C244.005 403.962 211.49 390.417 187.509 366.337C163.527 342.257 150.038 309.608 150 275.553C150.041 238.024 164.907 202.043 191.336 175.506C217.765 148.969 253.598 134.042 290.973 134C331.81 134.045 370.961 150.354 399.837 179.349C428.713 208.343 444.955 247.656 445 288.66Z" fill="black"/>
<path d="M1130 288.66C1130 292.832 1128.35 296.832 1125.41 299.782C1122.47 302.731 1118.49 304.388 1114.34 304.388C1110.18 304.388 1106.2 302.731 1103.26 299.782C1100.32 296.832 1098.67 292.832 1098.67 288.66C1098.63 255.996 1085.7 224.681 1062.69 201.584C1039.69 178.487 1008.5 165.494 975.973 165.456C946.903 165.488 919.032 177.097 898.476 197.737C877.92 218.378 866.359 246.363 866.327 275.553C866.359 301.267 876.545 325.919 894.653 344.101C912.761 362.284 937.312 372.512 962.92 372.544C985.069 372.519 1006.3 363.674 1021.97 347.948C1037.63 332.222 1046.44 310.9 1046.46 288.66C1046.44 269.895 1039.01 251.905 1025.79 238.636C1012.58 225.368 994.661 217.904 975.973 217.883C960.746 217.901 946.148 223.982 935.381 234.794C924.614 245.605 918.557 260.264 918.54 275.553C918.54 287.372 923.216 298.707 931.539 307.064C939.862 315.421 951.15 320.117 962.92 320.117C971.229 320.117 979.197 316.802 985.072 310.903C990.947 305.004 994.248 297.003 994.248 288.66C994.248 283.794 992.322 279.126 988.895 275.685C985.468 272.244 980.82 270.311 975.973 270.311C974.593 270.313 973.269 270.864 972.292 271.844C975.5 273.381 978.092 275.968 979.642 279.18C981.192 282.392 981.608 286.038 980.822 289.519C980.035 293 978.093 296.108 975.314 298.334C972.536 300.56 969.086 301.77 965.531 301.767C958.607 301.767 951.967 299.005 947.071 294.089C942.175 289.173 939.425 282.506 939.425 275.553C939.425 265.82 943.275 256.486 950.13 249.603C956.984 242.721 966.28 238.854 975.973 238.854C982.487 238.854 988.937 240.143 994.955 242.646C1000.97 245.149 1006.44 248.817 1011.05 253.442C1015.65 258.067 1019.31 263.558 1021.8 269.6C1024.29 275.643 1025.58 282.12 1025.58 288.66C1025.56 305.34 1018.95 321.332 1007.2 333.127C995.459 344.922 979.532 351.555 962.92 351.573C942.849 351.549 923.606 343.532 909.413 329.28C895.221 315.029 887.237 295.708 887.212 275.553C887.237 251.923 896.596 229.268 913.237 212.558C929.877 195.849 952.44 186.451 975.973 186.427C1002.97 186.458 1028.85 197.239 1047.93 216.405C1067.02 235.571 1077.76 261.556 1077.79 288.66C1077.75 319.24 1065.64 348.557 1044.11 370.179C1022.57 391.802 993.374 403.965 962.92 404C929.005 403.962 896.49 390.417 872.509 366.337C848.527 342.257 835.038 309.608 835 275.553C835.041 238.024 849.907 202.043 876.336 175.506C902.765 148.969 938.598 134.042 975.973 134C1016.81 134.045 1055.96 150.354 1084.84 179.349C1113.71 208.343 1129.96 247.656 1130 288.66Z" fill="black"/>
<path d="M596.263 546.654C612.484 537.797 631.847 536.097 639.5 536.355C647.154 536.097 666.516 537.797 682.738 546.654C691.087 550.688 711.602 556.336 726.869 546.654C742.137 536.973 742.971 518.244 741.48 510.091C738.598 494.727 714.167 464 639.5 464C564.834 464 540.402 494.727 537.52 510.091C536.029 518.245 536.864 536.973 552.131 546.654C567.398 556.336 587.914 550.688 596.263 546.654Z" fill="#396337" stroke="black" stroke-width="8" stroke-linecap="round"/>
</svg>
