<svg width="1280" height="720" viewBox="0 0 1280 720" fill="none" xmlns="http://www.w3.org/2000/svg">
<rect width="1280" height="720" fill="#C9E4C3"/>
<path d="M467 233H206" stroke="black" stroke-width="19" stroke-linecap="round"/>
<path d="M1074 233H814" stroke="black" stroke-width="19" stroke-linecap="round"/>
<path d="M714.37 441.38C687.17 458.58 654.703 461.88 641.87 461.38C629.037 461.88 596.57 458.581 569.371 441.381C555.371 433.547 520.971 422.581 495.371 441.381C469.771 460.181 468.371 496.547 470.871 512.381C475.705 542.214 516.671 601.88 641.87 601.88C767.07 601.88 808.037 542.214 812.87 512.38C815.37 496.547 813.97 460.18 788.37 441.38C762.77 422.581 728.37 433.547 714.37 441.38Z" fill="#396337"/>
<path d="M645.241 535.5C587.241 535.5 554.908 563.789 539.741 576.289C612.141 610.92 705.575 590.718 743.241 576.289C732.241 564.289 695.344 535.5 645.241 535.5Z" fill="#A2B26A" stroke="#A2B26A" stroke-width="12" stroke-linecap="round"/>
<path d="M714.37 441.38C687.17 458.58 654.703 461.88 641.87 461.38C629.037 461.88 596.57 458.581 569.371 441.381C555.371 433.547 520.971 422.581 495.371 441.381C476.97 454.894 471.072 477.484 470.139 495L813.603 495C812.669 477.484 806.771 454.894 788.37 441.38C762.77 422.581 728.37 433.547 714.37 441.38Z" fill="white" stroke="black" stroke-width="9" stroke-linecap="round"/>
<path d="M714.37 441.38C687.17 458.58 654.703 461.88 641.87 461.38C629.037 461.88 596.57 458.581 569.371 441.381C555.371 433.547 520.971 422.581 495.371 441.381C469.771 460.181 468.371 496.547 470.871 512.381C475.705 542.214 516.671 601.88 641.87 601.88C767.07 601.88 808.037 542.214 812.87 512.38C815.37 496.547 813.97 460.18 788.37 441.38C762.77 422.581 728.37 433.547 714.37 441.38Z" stroke="black" stroke-width="12" stroke-linecap="round"/>
</svg>
