<svg width="1280" height="720" viewBox="0 0 1280 720" fill="none" xmlns="http://www.w3.org/2000/svg">
<rect width="1280" height="720" fill="#C9E4C3"/>
<ellipse cx="333.5" cy="260" rx="37.5" ry="43" fill="black"/>
<ellipse cx="945.5" cy="260" rx="37.5" ry="43" fill="black"/>
<ellipse cx="639.5" cy="497" rx="74.5" ry="83" fill="#396337"/>
<path d="M640 418.5C656.133 418.5 671.06 426.619 682.717 438.139C692.67 447.974 699.866 459.933 703.199 470.5H577.572C579.922 456.63 587.879 444.243 598.68 434.978C610.744 424.629 625.984 418.5 640 418.5Z" fill="white" stroke="black" stroke-width="9"/>
<path d="M639.5 420C676.738 420 708 453.848 708 497C708 540.152 676.738 574 639.5 574C602.262 574 571 540.152 571 497C571 453.848 602.262 420 639.5 420Z" stroke="black" stroke-width="12"/>
</svg>
