<svg width="1280" height="720" viewBox="0 0 1280 720" fill="none" xmlns="http://www.w3.org/2000/svg">
<rect width="1280" height="720" fill="#C9E4C3"/>
<ellipse cx="333.5" cy="271" rx="37.5" ry="43" fill="black"/>
<ellipse cx="945.5" cy="271" rx="37.5" ry="43" fill="black"/>
<path d="M712.37 429.38C685.17 446.58 652.703 449.88 639.87 449.38C627.037 449.88 594.57 446.581 567.371 429.381C553.371 421.547 518.971 410.581 493.371 429.381C467.771 448.181 466.371 484.547 468.871 500.381C473.705 530.214 514.671 589.88 639.87 589.88C765.07 589.88 806.037 530.214 810.87 500.38C813.37 484.547 811.97 448.18 786.37 429.38C760.77 410.581 726.37 421.547 712.37 429.38Z" fill="#396337"/>
<path d="M643.241 523.5C585.241 523.5 552.908 551.789 537.741 564.289C610.141 598.92 703.575 578.718 741.241 564.289C730.241 552.289 693.344 523.5 643.241 523.5Z" fill="#A2B26A" stroke="#A2B26A" stroke-width="12" stroke-linecap="round"/>
<path d="M712.37 429.38C685.17 446.58 652.703 449.88 639.87 449.38C627.037 449.88 594.57 446.581 567.371 429.381C553.371 421.547 518.971 410.581 493.371 429.381C474.97 442.894 469.072 465.484 468.139 483L811.603 483C810.669 465.484 804.771 442.894 786.37 429.38C760.77 410.581 726.37 421.547 712.37 429.38Z" fill="white" stroke="black" stroke-width="9" stroke-linecap="round"/>
<path d="M712.37 429.38C685.17 446.58 652.703 449.88 639.87 449.38C627.037 449.88 594.57 446.581 567.371 429.381C553.371 421.547 518.971 410.581 493.371 429.381C467.771 448.181 466.371 484.547 468.871 500.381C473.705 530.214 514.671 589.88 639.87 589.88C765.07 589.88 806.037 530.214 810.87 500.38C813.37 484.547 811.97 448.18 786.37 429.38C760.77 410.581 726.37 421.547 712.37 429.38Z" stroke="black" stroke-width="12" stroke-linecap="round"/>
</svg>
